# xmcd
#
# Track frame offsets: 
#        150
#        12133
#        22607
#        34977
#        41551
#        56200
#        63901
#        73371
#        86194
#        96588
#        111104
#        124194
#        134417
#        145329
#        156783
#        166948
#        179053
#        188097
#        196491
#        205962
#        218837
#        239737
#        250329
#        262507
#
# Disc length: 3688 seconds
#
# Revision: 0
# Processed by: cddbd v1.5.2PL0 Copyright (c) Steve Scherf et al.
# Submitted via: ExactAudioCopyFreeDBPlugin 1.0
#
DISCID=6a0e6618
DTITLE=Various Artist - Lost Highway A Tribute to Hank Williams
DYEAR=2004
DGENRE=Country
TTITLE0=Tony Bennett - Cold, Cold Heart
TTITLE1=Patsy Cline - Lovesick Blues
TTITLE2=Dean Martin - Take These Chains From My Heart
TTITLE3=Loretta Lynn - Mind Your Own Business
TTITLE4=B.J. Thomas - I'm So Lonesome I Could Cry
TTITLE5=Maddox Brothers and Rose Maddox - My Bucket's Got a Hole in it
TTITLE6=Tennessee Ernie Ford and Helen O'connell - Hey, Good Lookin'
TTITLE7=Lynn Anderson - A Mansion on the Hill
TTITLE8=Helen O'connell and Cliffie Stone - Baby, We're Really in Love
TTITLE9=Guy Mitchell - I Can't Help it (If I'm Still in Love with You)
TTITLE10=Jerry Lee Lewis - You Win Again
TTITLE11=Molly Bee - Nobody's Lonesome for Me
TTITLE12=Johnny and the Hurricanes - Kawl-Liga
TTITLE13=Dinah Washington - Half as Much
TTITLE14=Outpost Scotty and His Bar-X Boys - Moanin' The Blues
TTITLE15=Margaret Whiting and Jimmy Wakely - Wedding Bells
TTITLE16=Rosemary Clooney - Why Don't You Love Me
TTITLE17=Jo Stafford and Frankie Laine - Settin' The Woods on Fire
TTITLE18=Roy Acuff - I Saw the Light
TTITLE19=Joni James - Your Cheatin' Heart
TTITLE20=Fats Domino - Jambalaya (On the Bayou)
TTITLE21=Spade Cooley and Ginny Jackson - Honky Tonkin'
TTITLE22=Leon Payne - Lost Highway
TTITLE23=Louis Armstrong - Cold, Cold Heart
EXTD=
EXTT0=
EXTT1=
EXTT2=
EXTT3=
EXTT4=
EXTT5=
EXTT6=
EXTT7=
EXTT8=
EXTT9=
EXTT10=
EXTT11=
EXTT12=
EXTT13=
EXTT14=
EXTT15=
EXTT16=
EXTT17=
EXTT18=
EXTT19=
EXTT20=
EXTT21=
EXTT22=
EXTT23=
PLAYORDER=
